<svg xmlns="http://www.w3.org/2000/svg" xmlns:xlink="http://www.w3.org/1999/xlink" width="500" zoomAndPan="magnify" viewBox="0 0 375 374.999991" height="500" preserveAspectRatio="xMidYMid meet" version="1.0"><defs><clipPath id="f6b3fa1b9a"><path d="M 29 0.71875 L 374.96875 0.71875 L 374.96875 374.691406 L 29 374.691406 Z M 29 0.71875 " clip-rule="nonzero"/></clipPath><clipPath id="a34a4ad196"><path d="M 0.898438 173 L 15 173 L 15 190 L 0.898438 190 Z M 0.898438 173 " clip-rule="nonzero"/></clipPath><clipPath id="8bb8102a88"><path d="M 221 97.597656 L 269 97.597656 L 269 213 L 221 213 Z M 221 97.597656 " clip-rule="nonzero"/></clipPath><clipPath id="2c576a1234"><path d="M 80.585938 127 L 324.335938 127 L 324.335938 277.597656 L 80.585938 277.597656 Z M 80.585938 127 " clip-rule="nonzero"/></clipPath></defs><g clip-path="url(#f6b3fa1b9a)"><path fill="#317c6f" d="M 372.625 158.46875 C 364.800781 109.140625 338.242188 65.808594 297.828125 36.457031 C 257.414062 7.101562 207.988281 -4.753906 158.660156 3.066406 C 113.945312 10.15625 74.15625 32.648438 45.246094 66.890625 L 42.644531 22.960938 C 42.421875 19.234375 39.230469 16.390625 35.496094 16.613281 C 31.773438 16.832031 28.929688 20.03125 29.148438 23.761719 L 32.824219 85.847656 C 32.929688 87.65625 33.757812 89.347656 35.125 90.535156 C 36.359375 91.617188 37.941406 92.207031 39.570312 92.207031 C 39.738281 92.207031 39.90625 92.203125 40.078125 92.1875 L 102.097656 87.519531 C 105.820312 87.242188 108.613281 83.996094 108.335938 80.269531 C 108.050781 76.550781 104.8125 73.761719 101.085938 74.039062 L 53.945312 77.589844 C 80.894531 44.722656 118.449219 23.128906 160.777344 16.417969 C 206.542969 9.160156 252.394531 20.164062 289.882812 47.394531 C 327.375 74.625 352.015625 114.824219 359.273438 160.589844 C 366.527344 206.355469 355.527344 252.203125 328.300781 289.691406 C 283.265625 351.695312 204.332031 376.71875 131.890625 351.96875 C 128.355469 350.757812 124.515625 352.648438 123.304688 356.183594 C 122.101562 359.714844 123.984375 363.554688 127.515625 364.761719 C 146.878906 371.375 167.347656 374.691406 187.847656 374.691406 C 206.546875 374.691406 225.269531 371.933594 243.199219 366.402344 C 282.0625 354.410156 315.269531 330.632812 339.238281 297.636719 C 368.585938 257.222656 380.445312 207.800781 372.625 158.46875 " fill-opacity="1" fill-rule="nonzero"/></g><path fill="#317c6f" d="M 17.632812 220.757812 C 17.453125 219.808594 17.277344 218.855469 17.105469 217.902344 C 16.457031 214.226562 12.957031 211.769531 9.277344 212.417969 C 5.601562 213.066406 3.148438 216.574219 3.796875 220.25 C 3.976562 221.277344 4.164062 222.300781 4.363281 223.324219 C 4.988281 226.558594 7.820312 228.804688 10.992188 228.804688 C 11.417969 228.804688 11.851562 228.761719 12.285156 228.675781 C 15.949219 227.96875 18.347656 224.425781 17.632812 220.757812 " fill-opacity="1" fill-rule="nonzero"/><g clip-path="url(#a34a4ad196)"><path fill="#317c6f" d="M 7.753906 189.949219 C 11.40625 189.949219 14.417969 187.03125 14.503906 183.355469 C 14.53125 182.386719 14.5625 181.417969 14.601562 180.449219 C 14.753906 176.71875 11.855469 173.570312 8.125 173.421875 C 4.390625 173.28125 1.246094 176.167969 1.097656 179.894531 C 1.054688 180.941406 1.019531 181.980469 0.992188 183.023438 C 0.902344 186.753906 3.851562 189.855469 7.582031 189.949219 C 7.640625 189.949219 7.695312 189.949219 7.753906 189.949219 " fill-opacity="1" fill-rule="nonzero"/></g><path fill="#317c6f" d="M 11.296875 151.105469 C 11.839844 151.238281 12.386719 151.304688 12.921875 151.304688 C 15.957031 151.304688 18.71875 149.242188 19.480469 146.160156 C 19.710938 145.222656 19.949219 144.28125 20.199219 143.34375 C 21.152344 139.738281 19 136.039062 15.390625 135.082031 C 11.785156 134.125 8.082031 136.28125 7.128906 139.886719 C 6.863281 140.898438 6.601562 141.910156 6.351562 142.921875 C 5.457031 146.550781 7.671875 150.210938 11.296875 151.105469 " fill-opacity="1" fill-rule="nonzero"/><path fill="#317c6f" d="M 27.566406 253.941406 C 26.144531 250.488281 22.195312 248.84375 18.738281 250.265625 C 15.289062 251.691406 13.640625 255.640625 15.066406 259.089844 C 15.460938 260.054688 15.867188 261.011719 16.277344 261.96875 C 17.378906 264.523438 19.871094 266.054688 22.488281 266.054688 C 23.378906 266.054688 24.289062 265.875 25.160156 265.5 C 28.585938 264.023438 30.171875 260.046875 28.691406 256.617188 C 28.308594 255.730469 27.933594 254.835938 27.566406 253.941406 " fill-opacity="1" fill-rule="nonzero"/><path fill="#317c6f" d="M 72.324219 317.097656 C 71.597656 316.453125 70.882812 315.800781 70.171875 315.144531 C 67.425781 312.613281 63.152344 312.789062 60.617188 315.527344 C 58.085938 318.273438 58.261719 322.550781 61.007812 325.082031 C 61.769531 325.785156 62.542969 326.492188 63.324219 327.183594 C 64.613281 328.335938 66.21875 328.898438 67.820312 328.898438 C 69.679688 328.898438 71.53125 328.136719 72.867188 326.640625 C 75.351562 323.859375 75.109375 319.582031 72.324219 317.097656 " fill-opacity="1" fill-rule="nonzero"/><path fill="#317c6f" d="M 45.515625 286.875 C 43.382812 283.808594 39.171875 283.054688 36.109375 285.191406 C 33.042969 287.324219 32.289062 291.535156 34.421875 294.601562 C 35.019531 295.453125 35.621094 296.300781 36.230469 297.144531 C 37.550781 298.980469 39.617188 299.953125 41.71875 299.953125 C 43.085938 299.953125 44.46875 299.539062 45.664062 298.675781 C 48.691406 296.492188 49.378906 292.269531 47.195312 289.242188 C 46.628906 288.457031 46.070312 287.667969 45.515625 286.875 " fill-opacity="1" fill-rule="nonzero"/><path fill="#ffffff" d="M 120.792969 197.445312 L 121.019531 197.445312 C 122.875 197.515625 124.621094 198.355469 125.832031 199.75 L 145.710938 222.761719 L 145.710938 154.757812 L 99.28125 154.757812 L 99.28125 216.191406 L 116.078125 199.394531 C 117.332031 198.132812 119.007812 197.445312 120.792969 197.445312 Z M 120.792969 197.445312 " fill-opacity="1" fill-rule="nonzero"/><path fill="#ffffff" d="M 207.019531 226.980469 L 207.019531 195.230469 L 160.589844 195.230469 L 160.589844 239.988281 L 175.929688 257.746094 Z M 207.019531 226.980469 " fill-opacity="1" fill-rule="nonzero"/><g clip-path="url(#8bb8102a88)"><path fill="#ffffff" d="M 268.332031 97.613281 L 221.902344 97.613281 L 221.902344 212.253906 L 268.332031 166.3125 Z M 268.332031 97.613281 " fill-opacity="1" fill-rule="nonzero"/></g><g clip-path="url(#2c576a1234)"><path fill="#ffffff" d="M 323.390625 129 C 322.578125 128.070312 321.34375 127.644531 320.125 127.867188 L 289.453125 133.550781 C 287.550781 133.902344 286.296875 135.730469 286.652344 137.632812 C 287.003906 139.53125 288.824219 140.785156 290.726562 140.433594 L 309.335938 136.988281 L 175.75 269.179688 L 123.4375 208.617188 C 122.804688 207.878906 121.886719 207.441406 120.917969 207.40625 C 119.941406 207.375 119 207.742188 118.3125 208.433594 L 80.585938 246.15625 L 80.585938 256.058594 L 120.601562 216.039062 L 172.902344 276.585938 C 173.539062 277.320312 174.445312 277.757812 175.414062 277.792969 C 176.382812 277.824219 177.324219 277.464844 178.015625 276.785156 L 313.359375 142.855469 L 307.828125 160.003906 C 307.234375 161.839844 308.246094 163.816406 310.082031 164.410156 C 310.441406 164.527344 310.804688 164.578125 311.164062 164.578125 C 312.636719 164.578125 314.011719 163.636719 314.492188 162.148438 L 324.09375 132.382812 C 324.472656 131.207031 324.207031 129.921875 323.390625 128.996094 Z M 323.390625 129 " fill-opacity="1" fill-rule="nonzero"/></g></svg>