<svg xmlns="http://www.w3.org/2000/svg" xmlns:xlink="http://www.w3.org/1999/xlink" width="169" zoomAndPan="magnify" viewBox="0 0 126.75 30.000001" height="40" preserveAspectRatio="xMidYMid meet" version="1.0"><defs><g/><clipPath id="47bb7b0a50"><path d="M 37 0 L 108 0 L 108 29.03125 L 37 29.03125 Z M 37 0 " clip-rule="nonzero"/></clipPath><clipPath id="dd104bcfb4"><rect x="0" width="71" y="0" height="30"/></clipPath><clipPath id="05c81a41b2"><path d="M 4.871094 0.65625 L 30.375 0.65625 L 30.375 28.234375 L 4.871094 28.234375 Z M 4.871094 0.65625 " clip-rule="nonzero"/></clipPath><clipPath id="8fb54d1ce4"><path d="M 2.792969 13 L 4 13 L 4 15 L 2.792969 15 Z M 2.792969 13 " clip-rule="nonzero"/></clipPath><clipPath id="81a0042d2e"><path d="M 39 20 L 83 20 L 83 29.03125 L 39 29.03125 Z M 39 20 " clip-rule="nonzero"/></clipPath><clipPath id="f9ab000125"><path d="M 0.316406 3 L 4 3 L 4 7 L 0.316406 7 Z M 0.316406 3 " clip-rule="nonzero"/></clipPath><clipPath id="b9a4cd77ba"><rect x="0" width="44" y="0" height="10"/></clipPath><clipPath id="138ceacb92"><path d="M 19 7.835938 L 23 7.835938 L 23 17 L 19 17 Z M 19 7.835938 " clip-rule="nonzero"/></clipPath><clipPath id="6d1d915fb2"><path d="M 8.699219 10 L 26.84375 10 L 26.84375 20.902344 L 8.699219 20.902344 Z M 8.699219 10 " clip-rule="nonzero"/></clipPath></defs><g clip-path="url(#47bb7b0a50)"><g transform="matrix(1, 0, 0, 1, 37, 0.000000000000005692)"><g clip-path="url(#dd104bcfb4)"><g fill="#ffffff" fill-opacity="1"><g transform="translate(0.48689, 21.484326)"><g><path d="M 2.046875 0 L 2.046875 -19.359375 L 13.828125 -19.359375 L 13.828125 -17.453125 L 4.375 -17.453125 L 4.375 -10.921875 L 12.421875 -10.921875 L 12.421875 -9.046875 L 4.375 -9.046875 L 4.375 0 Z M 2.046875 0 "/></g></g></g><g fill="#ffffff" fill-opacity="1"><g transform="translate(14.672893, 21.484326)"><g><path d="M 8.234375 0.328125 C 6.984375 0.328125 5.832031 0.046875 4.78125 -0.515625 C 3.726562 -1.078125 2.890625 -1.894531 2.265625 -2.96875 C 1.640625 -4.050781 1.328125 -5.359375 1.328125 -6.890625 C 1.328125 -8.347656 1.632812 -9.609375 2.25 -10.671875 C 2.875 -11.742188 3.710938 -12.570312 4.765625 -13.15625 C 5.828125 -13.75 7.023438 -14.046875 8.359375 -14.046875 C 9.628906 -14.046875 10.789062 -13.769531 11.84375 -13.21875 C 12.90625 -12.664062 13.757812 -11.851562 14.40625 -10.78125 C 15.050781 -9.71875 15.375 -8.421875 15.375 -6.890625 C 15.375 -5.484375 15.066406 -4.234375 14.453125 -3.140625 C 13.847656 -2.054688 13.003906 -1.207031 11.921875 -0.59375 C 10.847656 0.0195312 9.617188 0.328125 8.234375 0.328125 Z M 8.234375 -1.6875 C 9.140625 -1.6875 9.953125 -1.898438 10.671875 -2.328125 C 11.390625 -2.765625 11.960938 -3.367188 12.390625 -4.140625 C 12.816406 -4.921875 13.03125 -5.835938 13.03125 -6.890625 C 13.03125 -7.878906 12.84375 -8.757812 12.46875 -9.53125 C 12.101562 -10.3125 11.566406 -10.921875 10.859375 -11.359375 C 10.160156 -11.804688 9.316406 -12.03125 8.328125 -12.03125 C 7.304688 -12.03125 6.453125 -11.796875 5.765625 -11.328125 C 5.078125 -10.867188 4.554688 -10.253906 4.203125 -9.484375 C 3.847656 -8.710938 3.671875 -7.847656 3.671875 -6.890625 C 3.671875 -5.671875 3.890625 -4.675781 4.328125 -3.90625 C 4.773438 -3.144531 5.347656 -2.582031 6.046875 -2.21875 C 6.753906 -1.863281 7.484375 -1.6875 8.234375 -1.6875 Z M 8.234375 -1.6875 "/></g></g></g><g fill="#ffffff" fill-opacity="1"><g transform="translate(31.3755, 21.484326)"><g><path d="M 1.90625 0 L 1.90625 -19.359375 L 4.234375 -19.359375 L 4.234375 0 Z M 1.90625 0 "/></g></g></g><g fill="#ffffff" fill-opacity="1"><g transform="translate(37.514541, 21.484326)"><g><path d="M 8.21875 0.328125 C 6.925781 0.328125 5.757812 0.0351562 4.71875 -0.546875 C 3.675781 -1.140625 2.847656 -1.972656 2.234375 -3.046875 C 1.628906 -4.128906 1.328125 -5.398438 1.328125 -6.859375 C 1.328125 -8.273438 1.617188 -9.519531 2.203125 -10.59375 C 2.796875 -11.675781 3.609375 -12.519531 4.640625 -13.125 C 5.671875 -13.738281 6.863281 -14.046875 8.21875 -14.046875 C 9.832031 -14.046875 11.195312 -13.617188 12.3125 -12.765625 C 13.4375 -11.921875 14.144531 -10.789062 14.4375 -9.375 L 12.0625 -9.375 C 11.875 -10.21875 11.421875 -10.875 10.703125 -11.34375 C 9.984375 -11.820312 9.144531 -12.0625 8.1875 -12.0625 C 7.207031 -12.0625 6.382812 -11.820312 5.71875 -11.34375 C 5.0625 -10.863281 4.5625 -10.222656 4.21875 -9.421875 C 3.875 -8.628906 3.703125 -7.773438 3.703125 -6.859375 C 3.703125 -5.847656 3.894531 -4.941406 4.28125 -4.140625 C 4.675781 -3.347656 5.207031 -2.726562 5.875 -2.28125 C 6.550781 -1.84375 7.320312 -1.625 8.1875 -1.625 C 9.144531 -1.625 9.984375 -1.859375 10.703125 -2.328125 C 11.421875 -2.804688 11.875 -3.476562 12.0625 -4.34375 L 14.4375 -4.34375 C 14.25 -3.414062 13.867188 -2.601562 13.296875 -1.90625 C 12.734375 -1.207031 12.015625 -0.660156 11.140625 -0.265625 C 10.273438 0.128906 9.300781 0.328125 8.21875 0.328125 Z M 8.21875 0.328125 "/></g></g></g><g fill="#ffffff" fill-opacity="1"><g transform="translate(53.276927, 21.484326)"><g><path d="M 8.234375 0.328125 C 6.984375 0.328125 5.832031 0.046875 4.78125 -0.515625 C 3.726562 -1.078125 2.890625 -1.894531 2.265625 -2.96875 C 1.640625 -4.050781 1.328125 -5.359375 1.328125 -6.890625 C 1.328125 -8.347656 1.632812 -9.609375 2.25 -10.671875 C 2.875 -11.742188 3.710938 -12.570312 4.765625 -13.15625 C 5.828125 -13.75 7.023438 -14.046875 8.359375 -14.046875 C 9.628906 -14.046875 10.789062 -13.769531 11.84375 -13.21875 C 12.90625 -12.664062 13.757812 -11.851562 14.40625 -10.78125 C 15.050781 -9.71875 15.375 -8.421875 15.375 -6.890625 C 15.375 -5.484375 15.066406 -4.234375 14.453125 -3.140625 C 13.847656 -2.054688 13.003906 -1.207031 11.921875 -0.59375 C 10.847656 0.0195312 9.617188 0.328125 8.234375 0.328125 Z M 8.234375 -1.6875 C 9.140625 -1.6875 9.953125 -1.898438 10.671875 -2.328125 C 11.390625 -2.765625 11.960938 -3.367188 12.390625 -4.140625 C 12.816406 -4.921875 13.03125 -5.835938 13.03125 -6.890625 C 13.03125 -7.878906 12.84375 -8.757812 12.46875 -9.53125 C 12.101562 -10.3125 11.566406 -10.921875 10.859375 -11.359375 C 10.160156 -11.804688 9.316406 -12.03125 8.328125 -12.03125 C 7.304688 -12.03125 6.453125 -11.796875 5.765625 -11.328125 C 5.078125 -10.867188 4.554688 -10.253906 4.203125 -9.484375 C 3.847656 -8.710938 3.671875 -7.847656 3.671875 -6.890625 C 3.671875 -5.671875 3.890625 -4.675781 4.328125 -3.90625 C 4.773438 -3.144531 5.347656 -2.582031 6.046875 -2.21875 C 6.753906 -1.863281 7.484375 -1.6875 8.234375 -1.6875 Z M 8.234375 -1.6875 "/></g></g></g></g></g></g><g clip-path="url(#05c81a41b2)"><path fill="#ffffff" d="M 30.335938 12.34375 C 29.753906 8.691406 27.789062 5.480469 24.792969 3.304688 C 21.800781 1.128906 18.136719 0.25 14.484375 0.832031 C 11.167969 1.355469 8.222656 3.023438 6.078125 5.558594 L 5.886719 2.304688 C 5.871094 2.027344 5.632812 1.816406 5.359375 1.835938 C 5.082031 1.851562 4.871094 2.085938 4.886719 2.363281 L 5.160156 6.964844 C 5.167969 7.097656 5.230469 7.222656 5.328125 7.3125 C 5.421875 7.390625 5.539062 7.433594 5.660156 7.433594 C 5.671875 7.433594 5.683594 7.433594 5.695312 7.433594 L 10.292969 7.085938 C 10.566406 7.066406 10.773438 6.828125 10.753906 6.550781 C 10.734375 6.273438 10.492188 6.066406 10.21875 6.089844 L 6.722656 6.351562 C 8.722656 3.917969 11.503906 2.316406 14.640625 1.820312 C 18.03125 1.28125 21.425781 2.097656 24.203125 4.113281 C 26.984375 6.132812 28.808594 9.109375 29.347656 12.5 C 29.882812 15.890625 29.070312 19.289062 27.050781 22.066406 C 23.714844 26.660156 17.867188 28.515625 12.5 26.679688 C 12.238281 26.589844 11.953125 26.730469 11.863281 26.992188 C 11.773438 27.253906 11.914062 27.539062 12.175781 27.628906 C 13.609375 28.117188 15.125 28.363281 16.644531 28.363281 C 18.03125 28.363281 19.417969 28.160156 20.746094 27.75 C 23.625 26.863281 26.085938 25.101562 27.863281 22.65625 C 30.035156 19.660156 30.914062 16 30.335938 12.34375 " fill-opacity="1" fill-rule="nonzero"/></g><path fill="#ffffff" d="M 4.035156 16.960938 C 4.019531 16.890625 4.007812 16.816406 3.996094 16.746094 C 3.945312 16.476562 3.6875 16.292969 3.414062 16.339844 C 3.144531 16.390625 2.960938 16.648438 3.007812 16.921875 C 3.023438 16.996094 3.035156 17.074219 3.050781 17.148438 C 3.097656 17.390625 3.308594 17.554688 3.542969 17.554688 C 3.574219 17.554688 3.605469 17.550781 3.636719 17.546875 C 3.910156 17.492188 4.085938 17.230469 4.035156 16.960938 " fill-opacity="1" fill-rule="nonzero"/><g clip-path="url(#8fb54d1ce4)"><path fill="#ffffff" d="M 3.300781 14.675781 C 3.574219 14.675781 3.796875 14.460938 3.800781 14.1875 C 3.804688 14.117188 3.804688 14.042969 3.808594 13.972656 C 3.820312 13.695312 3.605469 13.464844 3.328125 13.453125 C 3.054688 13.441406 2.820312 13.65625 2.808594 13.929688 C 2.804688 14.007812 2.804688 14.085938 2.800781 14.164062 C 2.792969 14.441406 3.011719 14.667969 3.289062 14.675781 C 3.292969 14.675781 3.296875 14.675781 3.300781 14.675781 " fill-opacity="1" fill-rule="nonzero"/></g><path fill="#ffffff" d="M 3.566406 11.796875 C 3.605469 11.808594 3.644531 11.8125 3.683594 11.8125 C 3.910156 11.8125 4.113281 11.660156 4.171875 11.433594 C 4.1875 11.363281 4.207031 11.292969 4.222656 11.222656 C 4.292969 10.957031 4.136719 10.683594 3.867188 10.613281 C 3.601562 10.539062 3.328125 10.699219 3.257812 10.96875 C 3.234375 11.042969 3.214844 11.117188 3.199219 11.191406 C 3.132812 11.460938 3.296875 11.730469 3.566406 11.796875 " fill-opacity="1" fill-rule="nonzero"/><path fill="#ffffff" d="M 4.769531 19.417969 C 4.664062 19.160156 4.371094 19.039062 4.117188 19.144531 C 3.859375 19.25 3.738281 19.542969 3.84375 19.800781 C 3.875 19.871094 3.902344 19.941406 3.933594 20.011719 C 4.015625 20.203125 4.199219 20.316406 4.394531 20.316406 C 4.460938 20.316406 4.527344 20.300781 4.59375 20.273438 C 4.84375 20.164062 4.964844 19.871094 4.851562 19.617188 C 4.824219 19.550781 4.796875 19.484375 4.769531 19.417969 " fill-opacity="1" fill-rule="nonzero"/><path fill="#ffffff" d="M 8.085938 24.097656 C 8.03125 24.050781 7.980469 24 7.925781 23.953125 C 7.722656 23.765625 7.40625 23.777344 7.21875 23.980469 C 7.03125 24.183594 7.042969 24.5 7.246094 24.6875 C 7.304688 24.742188 7.363281 24.792969 7.417969 24.84375 C 7.515625 24.929688 7.632812 24.972656 7.753906 24.972656 C 7.890625 24.972656 8.027344 24.914062 8.125 24.804688 C 8.308594 24.597656 8.292969 24.28125 8.085938 24.097656 " fill-opacity="1" fill-rule="nonzero"/><path fill="#ffffff" d="M 6.101562 21.859375 C 5.941406 21.628906 5.628906 21.574219 5.402344 21.734375 C 5.175781 21.890625 5.121094 22.203125 5.277344 22.429688 C 5.320312 22.492188 5.367188 22.554688 5.410156 22.617188 C 5.507812 22.753906 5.664062 22.828125 5.820312 22.828125 C 5.921875 22.828125 6.023438 22.796875 6.109375 22.730469 C 6.335938 22.570312 6.386719 22.257812 6.222656 22.03125 C 6.183594 21.976562 6.140625 21.917969 6.101562 21.859375 " fill-opacity="1" fill-rule="nonzero"/><g clip-path="url(#81a0042d2e)"><g transform="matrix(1, 0, 0, 1, 39, 20)"><g clip-path="url(#b9a4cd77ba)"><g clip-path="url(#f9ab000125)"><g fill="#ffffff" fill-opacity="1"><g transform="translate(0.511894, 6.911878)"><g><path d="M 1.875 0.078125 C 1.570312 0.078125 1.300781 0.0078125 1.0625 -0.125 C 0.832031 -0.257812 0.644531 -0.445312 0.5 -0.6875 C 0.363281 -0.9375 0.296875 -1.226562 0.296875 -1.5625 C 0.296875 -1.882812 0.363281 -2.164062 0.5 -2.40625 C 0.632812 -2.65625 0.816406 -2.847656 1.046875 -2.984375 C 1.285156 -3.128906 1.5625 -3.203125 1.875 -3.203125 C 2.238281 -3.203125 2.546875 -3.101562 2.796875 -2.90625 C 3.054688 -2.71875 3.21875 -2.460938 3.28125 -2.140625 L 2.75 -2.140625 C 2.707031 -2.328125 2.601562 -2.472656 2.4375 -2.578125 C 2.269531 -2.691406 2.078125 -2.75 1.859375 -2.75 C 1.640625 -2.75 1.453125 -2.691406 1.296875 -2.578125 C 1.148438 -2.472656 1.035156 -2.328125 0.953125 -2.140625 C 0.878906 -1.960938 0.84375 -1.769531 0.84375 -1.5625 C 0.84375 -1.332031 0.882812 -1.125 0.96875 -0.9375 C 1.0625 -0.757812 1.179688 -0.617188 1.328125 -0.515625 C 1.484375 -0.421875 1.660156 -0.375 1.859375 -0.375 C 2.078125 -0.375 2.269531 -0.425781 2.4375 -0.53125 C 2.601562 -0.632812 2.707031 -0.785156 2.75 -0.984375 L 3.28125 -0.984375 C 3.238281 -0.773438 3.148438 -0.585938 3.015625 -0.421875 C 2.890625 -0.265625 2.726562 -0.140625 2.53125 -0.046875 C 2.332031 0.0351562 2.113281 0.078125 1.875 0.078125 Z M 1.875 0.078125 "/></g></g></g></g><g fill="#ffffff" fill-opacity="1"><g transform="translate(4.692381, 6.911878)"><g><path d="M 1.46875 0.078125 C 1.257812 0.078125 1.066406 0.0390625 0.890625 -0.03125 C 0.710938 -0.101562 0.570312 -0.210938 0.46875 -0.359375 C 0.363281 -0.503906 0.3125 -0.679688 0.3125 -0.890625 C 0.3125 -1.128906 0.375 -1.320312 0.5 -1.46875 C 0.625 -1.613281 0.789062 -1.71875 1 -1.78125 C 1.207031 -1.84375 1.429688 -1.875 1.671875 -1.875 L 2.515625 -1.875 C 2.515625 -2.09375 2.476562 -2.265625 2.40625 -2.390625 C 2.332031 -2.523438 2.238281 -2.617188 2.125 -2.671875 C 2.007812 -2.722656 1.878906 -2.75 1.734375 -2.75 C 1.523438 -2.75 1.34375 -2.695312 1.1875 -2.59375 C 1.039062 -2.5 0.953125 -2.347656 0.921875 -2.140625 L 0.375 -2.140625 C 0.394531 -2.367188 0.46875 -2.5625 0.59375 -2.71875 C 0.726562 -2.875 0.894531 -2.992188 1.09375 -3.078125 C 1.289062 -3.160156 1.503906 -3.203125 1.734375 -3.203125 C 2.046875 -3.203125 2.296875 -3.144531 2.484375 -3.03125 C 2.679688 -2.914062 2.820312 -2.757812 2.90625 -2.5625 C 3 -2.363281 3.046875 -2.148438 3.046875 -1.921875 L 3.046875 -0.96875 C 3.046875 -0.8125 3.0625 -0.691406 3.09375 -0.609375 C 3.132812 -0.523438 3.234375 -0.476562 3.390625 -0.46875 L 3.390625 0 C 3.253906 0 3.128906 -0.015625 3.015625 -0.046875 C 2.898438 -0.0859375 2.800781 -0.148438 2.71875 -0.234375 C 2.644531 -0.316406 2.59375 -0.421875 2.5625 -0.546875 C 2.457031 -0.378906 2.3125 -0.234375 2.125 -0.109375 C 1.945312 0.015625 1.726562 0.078125 1.46875 0.078125 Z M 1.5625 -0.375 C 1.769531 -0.375 1.941406 -0.425781 2.078125 -0.53125 C 2.222656 -0.632812 2.332031 -0.769531 2.40625 -0.9375 C 2.476562 -1.113281 2.515625 -1.289062 2.515625 -1.46875 L 1.71875 -1.46875 C 1.570312 -1.46875 1.429688 -1.453125 1.296875 -1.421875 C 1.171875 -1.390625 1.066406 -1.332031 0.984375 -1.25 C 0.910156 -1.175781 0.875 -1.0625 0.875 -0.90625 C 0.875 -0.71875 0.9375 -0.582031 1.0625 -0.5 C 1.195312 -0.414062 1.363281 -0.375 1.5625 -0.375 Z M 1.5625 -0.375 "/></g></g></g><g fill="#ffffff" fill-opacity="1"><g transform="translate(8.879169, 6.911878)"><g><path d="M 0.4375 1.390625 L 0.4375 -3.125 L 0.90625 -3.125 L 0.96875 -2.609375 C 1.0625 -2.753906 1.203125 -2.890625 1.390625 -3.015625 C 1.578125 -3.140625 1.816406 -3.203125 2.109375 -3.203125 C 2.421875 -3.203125 2.691406 -3.128906 2.921875 -2.984375 C 3.160156 -2.835938 3.34375 -2.640625 3.46875 -2.390625 C 3.59375 -2.148438 3.65625 -1.875 3.65625 -1.5625 C 3.65625 -1.25 3.59375 -0.96875 3.46875 -0.71875 C 3.34375 -0.46875 3.160156 -0.269531 2.921875 -0.125 C 2.691406 0.0078125 2.421875 0.078125 2.109375 0.078125 C 1.847656 0.078125 1.617188 0.0234375 1.421875 -0.078125 C 1.222656 -0.179688 1.070312 -0.328125 0.96875 -0.515625 L 0.96875 1.390625 Z M 2.046875 -0.390625 C 2.265625 -0.390625 2.453125 -0.4375 2.609375 -0.53125 C 2.765625 -0.632812 2.882812 -0.773438 2.96875 -0.953125 C 3.0625 -1.128906 3.109375 -1.332031 3.109375 -1.5625 C 3.109375 -1.78125 3.066406 -1.976562 2.984375 -2.15625 C 2.898438 -2.34375 2.773438 -2.484375 2.609375 -2.578125 C 2.453125 -2.679688 2.265625 -2.734375 2.046875 -2.734375 C 1.835938 -2.734375 1.648438 -2.679688 1.484375 -2.578125 C 1.328125 -2.484375 1.203125 -2.347656 1.109375 -2.171875 C 1.015625 -2.003906 0.96875 -1.800781 0.96875 -1.5625 C 0.96875 -1.34375 1.007812 -1.144531 1.09375 -0.96875 C 1.1875 -0.789062 1.3125 -0.648438 1.46875 -0.546875 C 1.632812 -0.441406 1.828125 -0.390625 2.046875 -0.390625 Z M 2.046875 -0.390625 "/></g></g></g><g fill="#ffffff" fill-opacity="1"><g transform="translate(13.424797, 6.911878)"><g><path d="M 0.75 -3.8125 C 0.644531 -3.8125 0.554688 -3.847656 0.484375 -3.921875 C 0.421875 -3.992188 0.390625 -4.082031 0.390625 -4.1875 C 0.390625 -4.28125 0.421875 -4.359375 0.484375 -4.421875 C 0.554688 -4.492188 0.644531 -4.53125 0.75 -4.53125 C 0.851562 -4.53125 0.941406 -4.492188 1.015625 -4.421875 C 1.085938 -4.359375 1.125 -4.28125 1.125 -4.1875 C 1.125 -4.082031 1.085938 -3.992188 1.015625 -3.921875 C 0.941406 -3.847656 0.851562 -3.8125 0.75 -3.8125 Z M 0.484375 0 L 0.484375 -3.125 L 1.015625 -3.125 L 1.015625 0 Z M 0.484375 0 "/></g></g></g><g fill="#ffffff" fill-opacity="1"><g transform="translate(15.521482, 6.911878)"><g><path d="M 1.671875 0 C 1.378906 0 1.148438 -0.0664062 0.984375 -0.203125 C 0.828125 -0.347656 0.75 -0.597656 0.75 -0.953125 L 0.75 -2.671875 L 0.203125 -2.671875 L 0.203125 -3.125 L 0.75 -3.125 L 0.75 -3.875 L 1.28125 -3.875 L 1.28125 -3.125 L 2.15625 -3.125 L 2.15625 -2.671875 L 1.28125 -2.671875 L 1.28125 -0.953125 C 1.28125 -0.753906 1.316406 -0.617188 1.390625 -0.546875 C 1.472656 -0.484375 1.613281 -0.453125 1.8125 -0.453125 L 2.15625 -0.453125 L 2.15625 0 Z M 1.671875 0 "/></g></g></g><g fill="#ffffff" fill-opacity="1"><g transform="translate(18.549898, 6.911878)"><g><path d="M 1.46875 0.078125 C 1.257812 0.078125 1.066406 0.0390625 0.890625 -0.03125 C 0.710938 -0.101562 0.570312 -0.210938 0.46875 -0.359375 C 0.363281 -0.503906 0.3125 -0.679688 0.3125 -0.890625 C 0.3125 -1.128906 0.375 -1.320312 0.5 -1.46875 C 0.625 -1.613281 0.789062 -1.71875 1 -1.78125 C 1.207031 -1.84375 1.429688 -1.875 1.671875 -1.875 L 2.515625 -1.875 C 2.515625 -2.09375 2.476562 -2.265625 2.40625 -2.390625 C 2.332031 -2.523438 2.238281 -2.617188 2.125 -2.671875 C 2.007812 -2.722656 1.878906 -2.75 1.734375 -2.75 C 1.523438 -2.75 1.34375 -2.695312 1.1875 -2.59375 C 1.039062 -2.5 0.953125 -2.347656 0.921875 -2.140625 L 0.375 -2.140625 C 0.394531 -2.367188 0.46875 -2.5625 0.59375 -2.71875 C 0.726562 -2.875 0.894531 -2.992188 1.09375 -3.078125 C 1.289062 -3.160156 1.503906 -3.203125 1.734375 -3.203125 C 2.046875 -3.203125 2.296875 -3.144531 2.484375 -3.03125 C 2.679688 -2.914062 2.820312 -2.757812 2.90625 -2.5625 C 3 -2.363281 3.046875 -2.148438 3.046875 -1.921875 L 3.046875 -0.96875 C 3.046875 -0.8125 3.0625 -0.691406 3.09375 -0.609375 C 3.132812 -0.523438 3.234375 -0.476562 3.390625 -0.46875 L 3.390625 0 C 3.253906 0 3.128906 -0.015625 3.015625 -0.046875 C 2.898438 -0.0859375 2.800781 -0.148438 2.71875 -0.234375 C 2.644531 -0.316406 2.59375 -0.421875 2.5625 -0.546875 C 2.457031 -0.378906 2.3125 -0.234375 2.125 -0.109375 C 1.945312 0.015625 1.726562 0.078125 1.46875 0.078125 Z M 1.5625 -0.375 C 1.769531 -0.375 1.941406 -0.425781 2.078125 -0.53125 C 2.222656 -0.632812 2.332031 -0.769531 2.40625 -0.9375 C 2.476562 -1.113281 2.515625 -1.289062 2.515625 -1.46875 L 1.71875 -1.46875 C 1.570312 -1.46875 1.429688 -1.453125 1.296875 -1.421875 C 1.171875 -1.390625 1.066406 -1.332031 0.984375 -1.25 C 0.910156 -1.175781 0.875 -1.0625 0.875 -0.90625 C 0.875 -0.71875 0.9375 -0.582031 1.0625 -0.5 C 1.195312 -0.414062 1.363281 -0.375 1.5625 -0.375 Z M 1.5625 -0.375 "/></g></g></g><g fill="#ffffff" fill-opacity="1"><g transform="translate(22.736686, 6.911878)"><g><path d="M 0.4375 0 L 0.4375 -4.40625 L 0.96875 -4.40625 L 0.96875 0 Z M 0.4375 0 "/></g></g></g><g fill="#ffffff" fill-opacity="1"><g transform="translate(24.726352, 6.911878)"><g><path d="M 1.625 0.078125 C 1.382812 0.078125 1.164062 0.0351562 0.96875 -0.046875 C 0.769531 -0.140625 0.609375 -0.265625 0.484375 -0.421875 C 0.367188 -0.578125 0.296875 -0.757812 0.265625 -0.96875 L 0.8125 -0.96875 C 0.84375 -0.8125 0.925781 -0.671875 1.0625 -0.546875 C 1.207031 -0.429688 1.398438 -0.375 1.640625 -0.375 C 1.859375 -0.375 2.019531 -0.421875 2.125 -0.515625 C 2.226562 -0.609375 2.28125 -0.71875 2.28125 -0.84375 C 2.28125 -0.96875 2.25 -1.0625 2.1875 -1.125 C 2.132812 -1.195312 2.046875 -1.25 1.921875 -1.28125 C 1.804688 -1.320312 1.664062 -1.359375 1.5 -1.390625 C 1.320312 -1.429688 1.148438 -1.484375 0.984375 -1.546875 C 0.816406 -1.617188 0.675781 -1.707031 0.5625 -1.8125 C 0.457031 -1.925781 0.40625 -2.078125 0.40625 -2.265625 C 0.40625 -2.453125 0.453125 -2.613281 0.546875 -2.75 C 0.640625 -2.882812 0.769531 -2.992188 0.9375 -3.078125 C 1.113281 -3.160156 1.316406 -3.203125 1.546875 -3.203125 C 1.878906 -3.203125 2.148438 -3.117188 2.359375 -2.953125 C 2.566406 -2.785156 2.6875 -2.546875 2.71875 -2.234375 L 2.203125 -2.234375 C 2.179688 -2.398438 2.113281 -2.523438 2 -2.609375 C 1.882812 -2.703125 1.726562 -2.75 1.53125 -2.75 C 1.34375 -2.75 1.195312 -2.707031 1.09375 -2.625 C 0.988281 -2.550781 0.9375 -2.445312 0.9375 -2.3125 C 0.9375 -2.226562 0.96875 -2.15625 1.03125 -2.09375 C 1.09375 -2.039062 1.175781 -1.992188 1.28125 -1.953125 C 1.394531 -1.910156 1.53125 -1.875 1.6875 -1.84375 C 1.894531 -1.800781 2.082031 -1.75 2.25 -1.6875 C 2.425781 -1.625 2.566406 -1.53125 2.671875 -1.40625 C 2.773438 -1.289062 2.828125 -1.117188 2.828125 -0.890625 C 2.828125 -0.703125 2.773438 -0.535156 2.671875 -0.390625 C 2.578125 -0.242188 2.441406 -0.128906 2.265625 -0.046875 C 2.085938 0.0351562 1.875 0.078125 1.625 0.078125 Z M 1.625 0.078125 "/></g></g></g><g fill="#ffffff" fill-opacity="1"><g transform="translate(28.466159, 6.911878)"><g/></g></g><g fill="#ffffff" fill-opacity="1"><g transform="translate(30.72653, 6.911878)"><g><path d="M 0.75 -3.8125 C 0.644531 -3.8125 0.554688 -3.847656 0.484375 -3.921875 C 0.421875 -3.992188 0.390625 -4.082031 0.390625 -4.1875 C 0.390625 -4.28125 0.421875 -4.359375 0.484375 -4.421875 C 0.554688 -4.492188 0.644531 -4.53125 0.75 -4.53125 C 0.851562 -4.53125 0.941406 -4.492188 1.015625 -4.421875 C 1.085938 -4.359375 1.125 -4.28125 1.125 -4.1875 C 1.125 -4.082031 1.085938 -3.992188 1.015625 -3.921875 C 0.941406 -3.847656 0.851562 -3.8125 0.75 -3.8125 Z M 0.484375 0 L 0.484375 -3.125 L 1.015625 -3.125 L 1.015625 0 Z M 0.484375 0 "/></g></g></g><g fill="#ffffff" fill-opacity="1"><g transform="translate(32.823215, 6.911878)"><g><path d="M 0.4375 0 L 0.4375 -3.125 L 0.90625 -3.125 L 0.9375 -2.5625 C 1.039062 -2.757812 1.1875 -2.914062 1.375 -3.03125 C 1.5625 -3.144531 1.773438 -3.203125 2.015625 -3.203125 C 2.390625 -3.203125 2.6875 -3.085938 2.90625 -2.859375 C 3.125 -2.640625 3.234375 -2.296875 3.234375 -1.828125 L 3.234375 0 L 2.703125 0 L 2.703125 -1.765625 C 2.703125 -2.085938 2.632812 -2.332031 2.5 -2.5 C 2.363281 -2.664062 2.164062 -2.75 1.90625 -2.75 C 1.632812 -2.75 1.410156 -2.648438 1.234375 -2.453125 C 1.054688 -2.253906 0.96875 -1.976562 0.96875 -1.625 L 0.96875 0 Z M 0.4375 0 "/></g></g></g><g fill="#ffffff" fill-opacity="1"><g transform="translate(37.022593, 6.911878)"><g><path d="M 1.875 0.078125 C 1.570312 0.078125 1.300781 0.0078125 1.0625 -0.125 C 0.832031 -0.257812 0.644531 -0.445312 0.5 -0.6875 C 0.363281 -0.9375 0.296875 -1.226562 0.296875 -1.5625 C 0.296875 -1.882812 0.363281 -2.164062 0.5 -2.40625 C 0.632812 -2.65625 0.816406 -2.847656 1.046875 -2.984375 C 1.285156 -3.128906 1.5625 -3.203125 1.875 -3.203125 C 2.238281 -3.203125 2.546875 -3.101562 2.796875 -2.90625 C 3.054688 -2.71875 3.21875 -2.460938 3.28125 -2.140625 L 2.75 -2.140625 C 2.707031 -2.328125 2.601562 -2.472656 2.4375 -2.578125 C 2.269531 -2.691406 2.078125 -2.75 1.859375 -2.75 C 1.640625 -2.75 1.453125 -2.691406 1.296875 -2.578125 C 1.148438 -2.472656 1.035156 -2.328125 0.953125 -2.140625 C 0.878906 -1.960938 0.84375 -1.769531 0.84375 -1.5625 C 0.84375 -1.332031 0.882812 -1.125 0.96875 -0.9375 C 1.0625 -0.757812 1.179688 -0.617188 1.328125 -0.515625 C 1.484375 -0.421875 1.660156 -0.375 1.859375 -0.375 C 2.078125 -0.375 2.269531 -0.425781 2.4375 -0.53125 C 2.601562 -0.632812 2.707031 -0.785156 2.75 -0.984375 L 3.28125 -0.984375 C 3.238281 -0.773438 3.148438 -0.585938 3.015625 -0.421875 C 2.890625 -0.265625 2.726562 -0.140625 2.53125 -0.046875 C 2.332031 0.0351562 2.113281 0.078125 1.875 0.078125 Z M 1.875 0.078125 "/></g></g></g><g fill="#ffffff" fill-opacity="1"><g transform="translate(41.203079, 6.911878)"><g><path d="M 0.609375 0.03125 C 0.503906 0.03125 0.414062 0 0.34375 -0.0625 C 0.28125 -0.132812 0.25 -0.222656 0.25 -0.328125 C 0.25 -0.429688 0.28125 -0.515625 0.34375 -0.578125 C 0.414062 -0.648438 0.503906 -0.6875 0.609375 -0.6875 C 0.710938 -0.6875 0.796875 -0.648438 0.859375 -0.578125 C 0.929688 -0.515625 0.96875 -0.429688 0.96875 -0.328125 C 0.96875 -0.222656 0.929688 -0.132812 0.859375 -0.0625 C 0.796875 0 0.710938 0.03125 0.609375 0.03125 Z M 0.609375 0.03125 "/></g></g></g></g></g></g><path fill="#ffffff" d="M 11.679688 15.230469 L 11.695312 15.230469 C 11.832031 15.234375 11.960938 15.296875 12.050781 15.402344 L 13.523438 17.105469 L 13.523438 12.070312 L 10.085938 12.070312 L 10.085938 16.621094 L 11.328125 15.375 C 11.421875 15.28125 11.546875 15.230469 11.679688 15.230469 Z M 11.679688 15.230469 " fill-opacity="1" fill-rule="nonzero"/><path fill="#ffffff" d="M 18.066406 17.417969 L 18.066406 15.066406 L 14.625 15.066406 L 14.625 18.382812 L 15.761719 19.695312 Z M 18.066406 17.417969 " fill-opacity="1" fill-rule="nonzero"/><g clip-path="url(#138ceacb92)"><path fill="#ffffff" d="M 22.605469 7.835938 L 19.167969 7.835938 L 19.167969 16.328125 L 22.605469 12.925781 Z M 22.605469 7.835938 " fill-opacity="1" fill-rule="nonzero"/></g><g clip-path="url(#6d1d915fb2)"><path fill="#ffffff" d="M 26.683594 10.160156 C 26.625 10.09375 26.53125 10.0625 26.441406 10.078125 L 24.171875 10.5 C 24.03125 10.523438 23.9375 10.660156 23.964844 10.800781 C 23.988281 10.941406 24.125 11.035156 24.265625 11.007812 L 25.644531 10.753906 L 15.75 20.542969 L 11.875 16.058594 C 11.828125 16.003906 11.761719 15.972656 11.6875 15.96875 C 11.617188 15.964844 11.546875 15.992188 11.496094 16.042969 L 8.699219 18.839844 L 8.699219 19.570312 L 11.664062 16.609375 L 15.539062 21.09375 C 15.585938 21.148438 15.652344 21.179688 15.722656 21.183594 C 15.796875 21.183594 15.867188 21.15625 15.917969 21.105469 L 25.941406 11.1875 L 25.53125 12.457031 C 25.488281 12.59375 25.5625 12.738281 25.699219 12.785156 C 25.726562 12.792969 25.753906 12.796875 25.777344 12.796875 C 25.886719 12.796875 25.988281 12.726562 26.027344 12.617188 L 26.738281 10.410156 C 26.765625 10.324219 26.746094 10.230469 26.683594 10.160156 Z M 26.683594 10.160156 " fill-opacity="1" fill-rule="nonzero"/></g></svg>